<svg xmlns="http://www.w3.org/2000/svg" xmlns:xlink="http://www.w3.org/1999/xlink" width="203.25" height="84.186" viewBox="0 0 203.25 84.186">
  <defs>
    <clipPath id="clip-path">
      <rect id="Rectangle_65" data-name="Rectangle 65" width="203.25" height="84.186" fill="#fff"/>
    </clipPath>
  </defs>
  <g id="Andmirlogo-White" transform="translate(0 0)">
    <g id="Group_83" data-name="Group 83" transform="translate(0 0)" clip-path="url(#clip-path)">
      <path id="Path_10" data-name="Path 10" d="M116.2,31.684H105.092l-3.895,29.7h7.919l.428-5.341h2.784l.408,5.341h7.86Zm-6.688,19.1q.3-3.933,1.458-12.5.552,7.461,1.131,12.5Z" transform="translate(-14.175 -4.439)" fill="#fff"/>
      <path id="Path_11" data-name="Path 11" d="M142.382,31.683v29.7h-6.676l-4-13.5v13.5h-6.433v-29.7h6.393l4.288,13.371V31.683Z" transform="translate(-17.547 -4.438)" fill="#fff"/>
      <path id="Path_12" data-name="Path 12" d="M166.286,36.5A5.359,5.359,0,0,0,165,33.885a5.772,5.772,0,0,0-2.976-1.687,35.357,35.357,0,0,0-7.515-.515h-5.731v29.7h9.667a20.605,20.605,0,0,0,4.11-.3,5.416,5.416,0,0,0,2.3-1.065,4.019,4.019,0,0,0,1.31-2.109,24.133,24.133,0,0,0,.376-5.346v-10.4a39.673,39.673,0,0,0-.256-5.658m-7.431,15.479a9.893,9.893,0,0,1-.381,3.635q-.379.669-2.006.668v-19.5a3.653,3.653,0,0,1,1.681.267,1.222,1.222,0,0,1,.579.832,15.541,15.541,0,0,1,.127,2.582Z" transform="translate(-20.841 -4.438)" fill="#fff"/>
      <path id="Path_13" data-name="Path 13" d="M196.448,31.683v29.7h-6.715l-.022-20.047-2.65,20.047h-4.732l-2.813-19.6-.021,19.6H172.78v-29.7h9.942q.422,2.693.9,6.325l1.073,7.543,1.771-13.868Z" transform="translate(-24.203 -4.438)" fill="#fff"/>
      <rect id="Rectangle_64" data-name="Rectangle 64" width="7.687" height="29.697" transform="translate(175.339 27.245)" fill="#fff"/>
      <path id="Path_14" data-name="Path 14" d="M232.39,47.406a5.774,5.774,0,0,0-3.06-1.523q2.509-.239,3.372-1.431t.863-4.66q0-3.795-1.212-5.531a5.056,5.056,0,0,0-3.138-2.154,41.33,41.33,0,0,0-7.375-.424h-5.43v29.7H224.1V47.988q1.592,0,1.968.569a6.759,6.759,0,0,1,.379,2.953V61.38h7.121V53.548a27.389,27.389,0,0,0-.194-4.392,4.534,4.534,0,0,0-.98-1.75m-5.946-6.7q0,1.961-.526,2.317a3.412,3.412,0,0,1-1.821.356V36.781a2.872,2.872,0,0,1,1.839.441,2.457,2.457,0,0,1,.508,1.849Z" transform="translate(-30.314 -4.438)" fill="#fff"/>
      <path id="Path_15" data-name="Path 15" d="M42.093,0A42.093,42.093,0,1,0,84.186,42.093,42.092,42.092,0,0,0,42.093,0m0,75.488a33.4,33.4,0,1,1,33.4-33.4,33.433,33.433,0,0,1-33.4,33.4" transform="translate(0 0)" fill="#fff"/>
      <path id="Path_16" data-name="Path 16" d="M75.26,42.95h-.869c-.77,0-.533,1.482-1.483,1.659s-.653-.711-1.66-2.134-1.126-1.719-.888-3.616-1.188-.237-1.188-3.142.593-3.912-.177-5.1-.415-1.6.177-2.551a4.526,4.526,0,0,0,.6-1.854,31.616,31.616,0,0,0-3.214-3.957,9.081,9.081,0,0,1-.229,1.069c-.415,1.482-1.127.829-2.017-1.364A17.451,17.451,0,0,0,62.666,18.8q-1.139-.856-2.358-1.608c-1.072.154-1.558.359-2.16-.629-.2-.329-.336-.588-.468-.826a31.229,31.229,0,0,0-6.36-2.316H42.851c-3.044,0-5.358.061-7.064.138A31.455,31.455,0,1,0,75.28,43.974c0-.342-.008-.683-.02-1.023M45.1,15.144a2.1,2.1,0,0,1,2.785-.532,9.326,9.326,0,0,1,3.321,2.667c.592.771-.357.179-.3.829s.119,1.127.177,1.661-.592.3-1.066.059a2.006,2.006,0,0,1-1.067-1.3c-.178-.652-.058-.593-.711-.83a7.852,7.852,0,0,1-2.016-1.541,3.386,3.386,0,0,0-1.483-.475s.236-.346.357-.534M39.116,40.815c.119,1.068-1.009.533-2.313,1.127s-.948,1.482-.236,2.014,1.956.178,2.074.653.3,2.136-.415,2.077-1.008-.713-1.778-1.483-1.008-.356-2.489-1.187c-.444-.248-.594-.512-.562-.77a3.453,3.453,0,0,1-1.514-.295c-1.006-.3-3.082-1.66-3.14-2.312a2.33,2.33,0,0,0-.475-1.721,4.822,4.822,0,0,1-.712-2.726c0-.772-.237.177-.711,1.126s-.712-.593-1.067-.712.889-1.187,1.245-1.778S26.487,34,25.658,33.76s.3-.533-.059-1.3a6.269,6.269,0,0,1-.535-3.914c.417-1.364,2.194-2.608,2.965-3.32s-.533-1.72.119-2.491a4.413,4.413,0,0,0,1.244-2.667,8.808,8.808,0,0,0-1.244-2.609.7.7,0,0,0,.831-.178c.356-.414,1.245-.3,1.838-.652a3.86,3.86,0,0,1,1.363-.712c.316-.064.474,1.3,1.185,1.423s.891-.119,1.483.059a2.243,2.243,0,0,1,1.068.772,1.463,1.463,0,0,0,1.126.533c.592,0,.473.354,1.126.354a7.778,7.778,0,0,0,1.068-.118.656.656,0,0,1,.355,1.007c-.355.476-1.244.356-1.423.771s.416.711.357,1.009-.594.829-.178,1.422,1.778.236,2.074.771a3.822,3.822,0,0,0,1.3,1.6c.593.3.89-.3,1.007-1.008s.239-.414.594-1.126a1.928,1.928,0,0,0,.118-1.778c-.237-.534-.354-.652.534-.3a2.637,2.637,0,0,1,1.481,1.245c.418.593.535-.236,1.305.177a6.675,6.675,0,0,1,2.077,2.017c-.061.178-.535.177-1.6.177S45.4,26.289,45.4,26.645s1.718.357,1.718.77-.592.475-1.126.831a6.688,6.688,0,0,0-1.6,1.246c-.357.475-1.542,1.3-1.6,1.955a42.91,42.91,0,0,1-.357,5.338c-.3.829-.711,2.429-1.126,2.549s-1.779-.3-2.43.119.118.3.236,1.363M63.779,54.984A3.664,3.664,0,0,1,62.356,56.7c-.831.476-.592.476-.891,1.9a3.373,3.373,0,0,1-.829,2.016,4.707,4.707,0,0,1-1.482,1.661c-1.007.77,0,.236-1.246.77s-.948,0-1.54,1.186a5.778,5.778,0,0,1-1.661,2.312,13.353,13.353,0,0,1-2.667,1.778s-1.362-1.243-1.362-.354.058,1.837-.12,1.837-.059-.177-1.423.06-1.067.237-2.075,1.482-1.245,2.252-1.777,2.372a3.681,3.681,0,0,1-1.068.058c-.119-.77.415-.236.652-.947s.06-.12,0-1.6-.474-.83-.059-1.482.416-.237.712-1.66.356-.772.652-1.957.355-.3.355-1.661.713-.771,0-1.66-.3-.948-1.243-1.363-1.423-.593-1.72-1.068-.534-.237-.77-.89.414,0-.238-1.007S41.132,57,40.658,56.17s-.238-.89.059-1.126.651-.3.532-1.067-.711-.653,0-1.186.948-.118,1.186-.77.535-.416.475-1.6-1.245-1.305-.475-2.077A10.673,10.673,0,0,1,43.741,47.1c.474-.355,1.837.89,2.015.653a8.906,8.906,0,0,0,.534-1.008,4.763,4.763,0,0,0,1.6.652c.535,0,.889.059,2.195.176s1.3.3,2.251,1.009,1.008.949,1.483.949a2.613,2.613,0,0,1,1.719.354c.831.476,1.3.3,1.186,1.187s-.652.77-.593,1.363.476,1.186,1.187.948.831-.651,1.66-.474.711.534,1.422.593,1.661-.356,2.551.059,1.066.947.83,1.422m2.845-27.568c-.889-.829-2.093-2.3-.475-2.667.6-.136.949,1.6,1.542,2.432s-.18,1.066-1.067.236" transform="translate(-1.733 -1.881)" fill="#fff"/>
      <path id="Path_17" data-name="Path 17" d="M43.373,41.055c.119.654,1.483,1.068,1.3-.295-.1-.738-.234-1.068-.83-1.068-1.007,0-.593.712-.474,1.363" transform="translate(-6.05 -5.56)" fill="#fff"/>
      <path id="Path_18" data-name="Path 18" d="M40.049,44.864c.95-.474-.119-.415-1.126-.415s-.414.771-1.126,1.245-2.251-.295-2.251-.295.77.889.77,1.244c0,.132.292.263.669.377a4.68,4.68,0,0,1,1.465-.85c.949-.356.653-.831,1.6-1.305" transform="translate(-4.979 -6.226)" fill="#fff"/>
      <path id="Path_19" data-name="Path 19" d="M42.6,31.779c.829-.06.665-1.012,1.036-1.073.711-.119.414.653.651,1.423s1.1.183,1.988-.35.89-1.008-.355-1.839-1.3-.711-2.017-1.186-.948-.178-2.133-.236-.593,1.127-.058,1.127.592.829.413,1.244-.354.948.476.889" transform="translate(-5.755 -3.99)" fill="#fff"/>
    </g>
  </g>
</svg>
