<svg xmlns="http://www.w3.org/2000/svg" xmlns:xlink="http://www.w3.org/1999/xlink" width="36" height="36" viewBox="0 0 36 36">
  <defs>
    <clipPath id="clip-path">
      <rect id="Rectangle_45" data-name="Rectangle 45" width="20" height="15" transform="translate(0.221 0.398)" fill="#007d9b"/>
    </clipPath>
  </defs>
  <g id="Group_251" data-name="Group 251" transform="translate(0.194)">
    <circle id="Ellipse_41" data-name="Ellipse 41" cx="18" cy="18" r="18" transform="translate(-0.194)" fill="#fff"/>
    <g id="Group_82" data-name="Group 82" transform="translate(7.573 9.943)">
      <g id="Group_81" data-name="Group 81" transform="translate(0.012 -0.34)" clip-path="url(#clip-path)">
        <path id="Path_8" data-name="Path 8" d="M1.932,0A1.933,1.933,0,0,0,0,1.932c0,.608.288.583.775.949l8.76,6.57a1.292,1.292,0,0,0,1.546,0l8.76-6.57c.487-.366.771-.341.771-.949A1.933,1.933,0,0,0,18.679,0ZM0,4.509v8.373a2.579,2.579,0,0,0,2.576,2.576H18.035a2.579,2.579,0,0,0,2.576-2.576V4.509l-8.76,6.57a2.572,2.572,0,0,1-3.092,0Z" transform="translate(-0.061 0.476)" fill="#007d9b"/>
      </g>
    </g>
  </g>
</svg>
